<svg xmlns="http://www.w3.org/2000/svg" viewBox="0 0 60 60"><defs><style>.a{fill:#FFD13A;}</style></defs><g transform="translate(47.57 49.882)"><path class="a" d="M407.177,426a1.177,1.177,0,1,0,1.177,1.177A1.177,1.177,0,0,0,407.177,426Z" transform="translate(-406 -426)"/></g><g transform="translate(0 0)"><path class="a" d="M52.266,5.558V3.516A3.52,3.52,0,0,0,48.75,0H11.25A3.52,3.52,0,0,0,7.734,3.516V5.558C.091,19.675,0,19.256,0,19.921H0v2.344A5.833,5.833,0,0,0,3.047,27.26V58.828A1.172,1.172,0,0,0,4.219,60H55.781a1.172,1.172,0,0,0,1.172-1.172V27.26A5.9,5.9,0,0,0,60,22.266V19.922h0C60,19.249,59.835,19.538,52.266,5.558ZM56.846,18.75H49.595L45.688,7.031H50.4Zm-16.3,2.344h7.031v1.172a3.516,3.516,0,1,1-7.031,0Zm-.179-2.344L38.415,7.031h4.8L47.124,18.75ZM10.078,3.516A1.173,1.173,0,0,1,11.25,2.344h37.5a1.173,1.173,0,0,1,1.172,1.172V4.688H10.078ZM38.2,21.094v1.172a3.516,3.516,0,1,1-7.031,0V21.094ZM31.172,18.75V7.031h4.867L37.992,18.75Zm-9.163,0L23.962,7.031h4.867V18.75Zm6.82,2.344v1.172a3.516,3.516,0,0,1-7.031,0V21.094ZM12.876,18.75,16.782,7.031h4.8L19.632,18.75Zm6.577,2.344v1.172a3.516,3.516,0,1,1-7.031,0V21.094ZM9.6,7.031h4.712L10.405,18.75H3.154ZM2.344,22.266V21.094h7.734v1.172a3.851,3.851,0,0,1-3.867,3.516A3.928,3.928,0,0,1,4.68,25.46,3.645,3.645,0,0,1,2.344,22.266Zm21.8,35.391H12.422V47.578H24.141Zm0-12.422H12.422V35.156H24.141ZM54.609,57.656H26.484V33.984a1.172,1.172,0,0,0-1.172-1.172H11.25a1.172,1.172,0,0,0-1.172,1.172V57.656H5.391V28.068a6.089,6.089,0,0,0,.82.057,6.46,6.46,0,0,0,4.277-1.676,6.336,6.336,0,0,0,.7-.752,5.852,5.852,0,0,0,9.433.08,5.853,5.853,0,0,0,9.375,0,5.853,5.853,0,0,0,9.375,0,5.852,5.852,0,0,0,9.433-.08,6.345,6.345,0,0,0,.7.752,6.46,6.46,0,0,0,4.277,1.676,6.064,6.064,0,0,0,.82-.057Zm3.047-35.391A3.648,3.648,0,0,1,55.234,25.5a3.893,3.893,0,0,1-1.444.284,3.851,3.851,0,0,1-3.867-3.516V21.094h7.734Z" transform="translate(0 0)"/></g><g transform="translate(31.056 32.77)"><path class="a" d="M286,292.472h-1.177v-11.3A1.177,1.177,0,0,0,283.648,280H269.53a1.177,1.177,0,0,0-1.177,1.177v11.3h-1.177a1.177,1.177,0,1,0,0,2.353H286a1.177,1.177,0,1,0,0-2.353Zm-3.53,0H270.706V282.353h11.766Z" transform="translate(-266 -280)"/></g><g transform="translate(33.483 49.882)"><path class="a" d="M296.589,426h-9.413a1.177,1.177,0,1,0,0,2.353h9.413a1.177,1.177,0,1,0,0-2.353Z" transform="translate(-286 -426)"/></g></svg>