<svg xmlns="http://www.w3.org/2000/svg" viewBox="0 0 40 59.999">
  <defs>
    <style>
      .cls-1 {
        fill: #03a9f4;
      }
    </style>
  </defs>
  <path id="Path_5" data-name="Path 5" class="cls-1" d="M47,4H35l1.8-2.4A1,1,0,0,0,35.2.4L32.5,4H27.618L25.894.553a1,1,0,0,0-1.789.895L25.382,4H13a3,3,0,0,0-3,3V57a3,3,0,0,0,3,3H47a3,3,0,0,0,3-3V7A3,3,0,0,0,47,4ZM13,6H26.382l1,2a3.943,3.943,0,1,0,1.782-.909L28.618,6H47a1,1,0,0,1,1,1V40H39.852a4.251,4.251,0,0,0-2.21-2.752L34,35.388V35a7.224,7.224,0,0,0,3.412-4.364A2.976,2.976,0,0,0,39,28V27a2.982,2.982,0,0,0-1.151-2.349c-.624-3.78-3.262-5.7-7.849-5.7q-.325,0-.636.024a5.082,5.082,0,0,1-3.224-.74,4.1,4.1,0,0,1-.915-.793,1.2,1.2,0,0,0-2.136.874c.042.374.1.809.2,1.286.193.975.193.975-.078,1.558-.1.221-.228.49-.376.853a11.167,11.167,0,0,0-.7,2.647A2.983,2.983,0,0,0,21,27v1a2.976,2.976,0,0,0,1.588,2.637A7.218,7.218,0,0,0,26,35v.376l-3.769,1.858A4.269,4.269,0,0,0,20.124,40H12V7A1,1,0,0,1,13,6ZM28.332,9.9l.773,1.546a1,1,0,1,0,1.789-.894l-.77-1.54a1.994,1.994,0,1,1-1.792.888ZM27.01,37.109A1.777,1.777,0,0,0,28,35.521v-1.8l-.6-.26a5.3,5.3,0,0,1-3.015-3.814l-.143-.533-.526-.164A1.007,1.007,0,0,1,23,28V27a1,1,0,0,1,.541-.876l.469-.25.055-.529a9.389,9.389,0,0,1,.622-2.57c.133-.325.246-.568.338-.767a2.953,2.953,0,0,0,.377-1.875,7.152,7.152,0,0,0,4.122.841c.155-.013.314-.019.477-.019,3.744,0,5.572,1.356,5.929,4.4l.062.522.465.246A1,1,0,0,1,37,27v1a1.007,1.007,0,0,1-.712.947l-.526.164-.143.533A5.3,5.3,0,0,1,32.6,33.458l-.6.261V35.53a1.76,1.76,0,0,0,.964,1.575l3.775,1.929a2.273,2.273,0,0,1,.99.967h-15.5a2.187,2.187,0,0,1,.927-.989ZM47,58H13a1,1,0,0,1-1-1V42H48V57A1,1,0,0,1,47,58Z" transform="translate(-10 -0.001)"/>
</svg>
