<svg xmlns="http://www.w3.org/2000/svg" viewBox="0 0 59.176 60"><defs><style>.a{fill:#FFD13A;}</style></defs><g transform="translate(-0.08 0)"><path class="a" d="M40.382,29.439H33.094a4.076,4.076,0,0,0-2.916-2.916V16.173a1.02,1.02,0,1,0-2.041,0V26.522a4.073,4.073,0,1,0,4.957,4.957h7.288a1.02,1.02,0,0,0,0-2.041ZM29.158,32.5A2.041,2.041,0,1,1,31.2,30.459,2.043,2.043,0,0,1,29.158,32.5Z" transform="translate(0.51 0.565)"/><path class="a" d="M51.21,10.074,55.39,14.3a1.012,1.012,0,0,0,1.443,0,8.454,8.454,0,0,0,0-11.85,8.232,8.232,0,0,0-11.719,0,1.039,1.039,0,0,0,0,1.459l4.654,4.706-1.734,1.753a27.259,27.259,0,0,0-36.73,0L9.569,8.615l4.654-4.706a1.039,1.039,0,0,0,0-1.459A8.232,8.232,0,0,0,2.5,2.45a8.454,8.454,0,0,0,0,11.85,1.012,1.012,0,0,0,1.443,0l4.18-4.226L9.836,11.8a28,28,0,0,0,5.873,43.312l-3.09,3.124a1.039,1.039,0,0,0,0,1.459,1.012,1.012,0,0,0,1.443,0l3.52-3.56a27.215,27.215,0,0,0,24.169,0l3.52,3.56a1.012,1.012,0,0,0,1.443,0,1.039,1.039,0,0,0,0-1.459l-3.09-3.124A28,28,0,0,0,49.5,11.8Zm4.179-6.165a6.38,6.38,0,0,1,.662,8.144L47.336,3.24A6.2,6.2,0,0,1,55.389,3.909Zm-52.1,8.143a6.379,6.379,0,0,1,.662-8.143A6.206,6.206,0,0,1,12,3.24ZM29.667,56.905a25.8,25.8,0,0,1,0-51.588,25.8,25.8,0,0,1,0,51.588Z" transform="translate(0 0)"/><path class="a" d="M49.833,19.008a23.806,23.806,0,0,0-8.508-8.628c-.016-.011-.027-.029-.044-.039s-.038-.01-.056-.02a23.1,23.1,0,0,0-23.357,0,.515.515,0,0,0-.056.02c-.017.01-.027.028-.044.039A23.8,23.8,0,0,0,9.26,19.008c-.011.018-.029.027-.039.044a.528.528,0,0,0-.018.057A24,24,0,0,0,9.2,42.8c.009.019.008.038.018.057a.855.855,0,0,0,.052.068,23.817,23.817,0,0,0,8.495,8.6c.016.011.027.029.044.039s.055.022.082.034a23.1,23.1,0,0,0,23.306,0c.027-.012.055-.019.082-.034s.027-.028.044-.039a23.809,23.809,0,0,0,8.495-8.6.855.855,0,0,0,.052-.068.528.528,0,0,0,.018-.057,24,24,0,0,0,0-23.686c-.009-.019-.008-.038-.018-.057S49.843,19.025,49.833,19.008Zm-8.713,30.2-.487-.855a1.012,1.012,0,0,0-1.394-.379,1.043,1.043,0,0,0-.373,1.414l.489.858a21.035,21.035,0,0,1-8.788,2.38v-.982a1.02,1.02,0,1,0-2.041,0v.982a21.02,21.02,0,0,1-8.788-2.38l.489-.858a1.043,1.043,0,0,0-.373-1.414,1.013,1.013,0,0,0-1.394.379l-.487.855a21.713,21.713,0,0,1-6.432-6.522l.843-.494a1.043,1.043,0,0,0,.373-1.414,1.01,1.01,0,0,0-1.394-.379l-.846.5a21.806,21.806,0,0,1-2.347-8.911h.968a1.035,1.035,0,0,0,0-2.07h-.97a21.8,21.8,0,0,1,2.347-8.911l.846.5a1.007,1.007,0,0,0,.509.139,1.018,1.018,0,0,0,.885-.517,1.043,1.043,0,0,0-.373-1.413l-.843-.5a21.725,21.725,0,0,1,6.432-6.522l.487.855a1.019,1.019,0,0,0,.885.517,1.007,1.007,0,0,0,.509-.139,1.043,1.043,0,0,0,.373-1.414l-.489-.858a21.035,21.035,0,0,1,8.788-2.38v.982a1.02,1.02,0,1,0,2.041,0V9.275a21.02,21.02,0,0,1,8.788,2.38l-.489.858a1.043,1.043,0,0,0,.373,1.414,1.007,1.007,0,0,0,.509.139,1.018,1.018,0,0,0,.885-.517l.487-.855a21.713,21.713,0,0,1,6.432,6.522l-.843.494a1.043,1.043,0,0,0-.373,1.414,1.019,1.019,0,0,0,.885.517,1.007,1.007,0,0,0,.509-.139l.846-.5a21.806,21.806,0,0,1,2.347,8.911h-.968a1.035,1.035,0,0,0,0,2.07h.968A21.8,21.8,0,0,1,48.572,40.9l-.846-.5a1.012,1.012,0,0,0-1.394.379,1.043,1.043,0,0,0,.373,1.414l.843.494A21.678,21.678,0,0,1,41.119,49.212Z" transform="translate(0.122 0.146)"/></g></svg>