<svg xmlns="http://www.w3.org/2000/svg" viewBox="0 0 156.377 32.014"><defs><style>.a{fill:#184785;}.b{fill:#ba8c60;}</style></defs><path class="a" d="M141.871,12.673l.26,1.992a8.508,8.508,0,0,0-3.811-.736,4.521,4.521,0,0,0-2.7,1.039v10.1h-2.815V12.587l2.815-.361v1.212a5.622,5.622,0,0,1,2.8-1.068,12.892,12.892,0,0,1,3.45.3Zm-74.1,11.316c1.083-.087,2.973-.318,2.973-2.093a1.754,1.754,0,0,0-1.1-1.472,24.206,24.206,0,0,0-2.54-1.155c-1.848-.751-3.825-1.645-3.825-3.479,0-2.122,1.559-3.594,5.355-3.594a19.3,19.3,0,0,1,3.71.476v1.949a10.846,10.846,0,0,0-4.027-1.1c-1.342,0-2.454.4-2.454,1.53,0,.592.4,1.039,1.083,1.4a22.061,22.061,0,0,0,2.54,1.083c1.862.736,3.839,1.7,3.839,3.868,0,2.757-2.555,3.912-5.831,3.912a16.3,16.3,0,0,1-4.287-.491V23.772a31.267,31.267,0,0,0,4.561.216Zm18.865-9.382a10.367,10.367,0,0,0-3.94-1.1,3.746,3.746,0,0,0-4.1,3.955c0,1.617.087,3.2,1.155,4.446a7.436,7.436,0,0,0,5.24,2.079,13.337,13.337,0,0,0,1.92-.188v1.054a13.009,13.009,0,0,1-3.58.462c-5.687,0-7.794-2.887-7.794-6.943,0-3.363,1.718-6.178,6.438-6.178a20.463,20.463,0,0,1,4.677.476v1.934Zm40.4,1.963a2.881,2.881,0,0,0-2.8-3.06,3.216,3.216,0,0,0-3.291,3.06Zm2.742,8.213a13.865,13.865,0,0,1-4.114.52c-4.778,0-7.578-2.483-7.578-6.943,0-3.839,1.79-6.178,6.567-6.178,3.089,0,5.514,1.819,5.514,5.037v.549H120.9a6.322,6.322,0,0,0,1.328,4.287,7.087,7.087,0,0,0,5.138,1.92,12.053,12.053,0,0,0,2.439-.361v1.169Zm-26.3-11.951,2.815-.375,4.561,9.4,4.3-9.4h2.107l-6.019,12.832h-1.7l-6.062-12.456ZM95.654,23.975c3.406,0,3.695-3.118,3.695-5.167,0-2.208-.534-5.3-3.753-5.3-3.536,0-3.724,3.089-3.724,5.3C91.872,20.829,92.464,23.975,95.654,23.975Zm-6.842-5.168c0-3.912,1.977-6.625,6.755-6.625,4.287,0,6.842,2.6,6.842,6.6,0,4.027-2.208,6.524-6.784,6.524C91.237,25.3,88.812,22.632,88.812,18.807ZM56.379,8.328a2.014,2.014,0,0,1,3.955,0,1.8,1.8,0,0,1-1.963,1.631,1.846,1.846,0,0,1-1.992-1.631Zm.693,4.2,2.815-.375V25.015H57.072V12.53Zm-13.6-5.543a12.523,12.523,0,0,1,7.65,2.223,8.74,8.74,0,0,1,.029,13.6A12.735,12.735,0,0,1,43.461,25h-5.3V6.986h5.312ZM41.31,8.343V23.686a14.1,14.1,0,0,0,5.283-.736,7.356,7.356,0,0,0,4.345-6.928,7.34,7.34,0,0,0-4.345-6.928,13.511,13.511,0,0,0-5.283-.751Zm102.423,4.171,2.7-.346,3.681,9.238,4.186-9.238h2.078l-5.918,13.063c-.982,2.078-2.728,4.835-5.875,4.835h-.476V28.132c3.161.2,4.46-2.151,4.46-3.089a4.2,4.2,0,0,0-.361-1.5l-4.475-11.027Z"/><path class="b" d="M10.753,8.949c-.794.779-1.573,1.573-2.324,2.41,2.454,2.67,4.98,5.254,7.563,7.794,2.584-2.54,5.124-5.124,7.563-7.794-.751-.823-1.53-1.6-2.324-2.382q-2.641,2.49-5.239,5.066-2.577-2.577-5.239-5.095ZM13.178,6.8c.967.794,1.9,1.617,2.829,2.454.924-.837,1.862-1.66,2.815-2.454-.909-.765-1.862-1.5-2.829-2.194-.967.693-1.9,1.429-2.815,2.194ZM6.337,13.741c-.606.751-1.184,1.516-1.732,2.309A48.864,48.864,0,0,0,15.993,27.337a48.192,48.192,0,0,0,11.345-11.3c-.534-.779-1.1-1.544-1.689-2.281a78.507,78.507,0,0,1-9.627,9.959,79.969,79.969,0,0,1-9.685-9.974ZM1.92,16.007A14.251,14.251,0,0,1,15.906,1.9a14.244,14.244,0,0,1,14,14.1,14.238,14.238,0,0,1-14,14.073A14.244,14.244,0,0,1,1.92,16.007Zm-1.92,0A15.921,15.921,0,1,1,15.921,32.014,15.961,15.961,0,0,1,0,16.007Zm1.083,0A14.838,14.838,0,1,0,15.921,1.1,14.867,14.867,0,0,0,1.083,16.007Z"/></svg>