<svg xmlns="http://www.w3.org/2000/svg" viewBox="0 0 40 40">
  <path class="a" d="M36.667 23.768V6.667a3.337 3.337 0 0 0-3.333-3.333h-5V.833a.833.833 0 0 0-1.667 0v2.5h-15v-2.5a.833.833 0 1 0-1.667 0v2.5H3.333A3.337 3.337 0 0 0 0 6.667v26.666a3.337 3.337 0 0 0 3.333 3.333h20.435a9.163 9.163 0 1 0 12.9-12.9zm-35-17.1A1.669 1.669 0 0 1 3.333 5H10v1.667a1.667 1.667 0 1 0 1.667 1.667V5h15v1.667a1.667 1.667 0 1 0 1.667 1.667V5h5A1.669 1.669 0 0 1 35 6.667v5H1.667zM3.333 35a1.669 1.669 0 0 1-1.667-1.667v-20H35v9.345A9.15 9.15 0 0 0 22.679 35zm27.5 3.333a7.5 7.5 0 1 1 7.5-7.5 7.508 7.508 0 0 1-7.5 7.5z"/>
  <path class="a" d="M34.411 27.744l-5.244 5.244-1.911-1.911a.833.833 0 0 0-1.178 1.178l2.5 2.5a.833.833 0 0 0 1.178 0l5.833-5.833a.833.833 0 0 0-1.179-1.178z"/>
</svg>
