<svg xmlns="http://www.w3.org/2000/svg" viewBox="0 0 44.1 45"><defs><style>.a{fill:#fff;}</style></defs><g transform="translate(0 0)"><path class="a" d="M152.384,111.411a19.49,19.49,0,0,0-.48-4.65H130.55v8.44h12.534a11.115,11.115,0,0,1-4.65,7.379l-.043.283,6.752,5.23.468.047c4.3-3.968,6.773-9.805,6.773-16.729" transform="translate(-108.284 -88.649)"/><path class="a" d="M34.243,174.616A21.678,21.678,0,0,0,49.3,169.107l-7.177-5.56a13.461,13.461,0,0,1-7.884,2.274A13.692,13.692,0,0,1,21.3,156.37l-.267.023-7.021,5.433-.092.255a22.727,22.727,0,0,0,20.318,12.534" transform="translate(-11.499 -129.616)"/><path class="a" d="M9.805,86.13a14,14,0,0,1-.758-4.5,14.713,14.713,0,0,1,.733-4.5l-.013-.3L2.659,71.312l-.233.111a22.7,22.7,0,0,0,0,20.419L9.805,86.13" transform="translate(0 -59.131)"/><path class="a" d="M33.97,8.794a12.349,12.349,0,0,1,8.676,3.386l6.332-6.267A21.4,21.4,0,0,0,33.97,0,22.393,22.393,0,0,0,13.925,12.534l7.255,5.711A13.583,13.583,0,0,1,33.97,8.794" transform="translate(-11.499)"/></g></svg>