<svg xmlns="http://www.w3.org/2000/svg" viewBox="0 0 47.083 40"><path d="M19.9 40H6.024V21.082l-4.275-.007h-.018A1.671 1.671 0 0 1 .1 20.006a1.678 1.678 0 0 1 .488-1.848l.012-.006L21.33.978c1.861-1.556 3.241-1.029 4.439.015l20.7 17.161a1.624 1.624 0 0 1 .526 1.8 1.692 1.692 0 0 1-1.666 1.127h-4.272V40H27.176l.022-.634c0-.028 0-.052.006-.07V33.02a1.12 1.12 0 0 0-1.119-1.119h-5.09a1.12 1.12 0 0 0-1.119 1.119v6.28c0 .019 0 .043.006.07zM7.25 38.774h11.4V33.02a2.347 2.347 0 0 1 2.345-2.345h5.091a2.347 2.347 0 0 1 2.344 2.345v5.758h11.4V19.857h5.5a.438.438 0 0 0 .388-.738L24.986 1.936c-1.028-.856-1.588-1.131-2.9.007l-20.7 17.15a.438.438 0 0 0 .348.756l5.518.01z" fill="#a2b3bb"/></svg>