<svg xmlns="http://www.w3.org/2000/svg" viewBox="0 0 53.881 52.042">
  <defs>
    <style>
      .cls-1 {
        fill: none;
        stroke: #03a9f4;
        stroke-miterlimit: 10;
        stroke-width: 2px;
      }
    </style>
  </defs>
  <g id="guides" transform="translate(1 1.022)">
    <path id="Path_20" data-name="Path 20" class="cls-1" d="M109.776,27.382h0L104.1,12.067l-1.069-2.876a6.328,6.328,0,0,0-8.2-3.774l-.7.272a6.3,6.3,0,0,0-.817.392,6.44,6.44,0,0,0-2.288,3.163l-.99,2.984L85,27.382Z" transform="translate(-71.767 -4.998)"/>
    <path id="Path_21" data-name="Path 21" class="cls-1" d="M44.426,234.522a6.481,6.481,0,0,0,4.065,8.216l.729.247a6.484,6.484,0,0,0,8.216-4.066l3.082-9.119h-14.5Z" transform="translate(-37.804 -193.328)"/>
    <path id="Path_22" data-name="Path 22" class="cls-1" d="M197.686,229.8H183l3.424,9.065a6.481,6.481,0,0,0,8.355,3.774l.718-.272a6.481,6.481,0,0,0,3.774-8.355Z" transform="translate(-154.094 -193.328)"/>
    <path id="Path_23" data-name="Path 23" class="cls-1" d="M50.012,144.5H11.869a6.828,6.828,0,1,0,0,13.656H50.012a6.828,6.828,0,1,0,0-13.656Z" transform="translate(-5 -121.868)"/>
  </g>
</svg>
