<svg xmlns="http://www.w3.org/2000/svg" viewBox="0 0 41.44 60"><defs><style>.a{fill:#FFD13A;}</style></defs><g transform="translate(-0.336)"><path class="a" d="M1.4,37.85H18.85v19.9H10.882a1.126,1.126,0,1,0,0,2.251H35.913a1.126,1.126,0,0,0,0-2.251H27.944V37.85H40.651a1.126,1.126,0,0,0,1.125-1.125V20.7A10.2,10.2,0,0,0,31.647,10.568H29.779V8.756h7.259a1.126,1.126,0,0,0,1.125-1.125V1.125A1.126,1.126,0,0,0,37.038,0H28.653a1.126,1.126,0,0,0-1.125,1.125v9.387H10.465A10.2,10.2,0,0,0,.336,20.642V36.725A1.125,1.125,0,0,0,1.4,37.85ZM35.913,6.505H29.779V2.251h6.134ZM25.693,57.749H21.1V37.85h4.592Zm1.835-45.02v7.878a1.126,1.126,0,1,0,2.251,0V12.729H31.6a7.947,7.947,0,0,1,7.879,7.878V35.6H20.651V20.7a10.127,10.127,0,0,0-3.816-7.878Zm-25,7.878a7.935,7.935,0,0,1,15.869,0V35.6H2.53Zm0,0"/></g></svg>