<svg xmlns="http://www.w3.org/2000/svg" viewBox="0 0 39.273 40"><path d="M39.273 7.273a7.273 7.273 0 0 0-14.21-2.182H3.807A3.812 3.812 0 0 0 0 8.9v27.292A3.812 3.812 0 0 0 3.807 40H31.1a3.812 3.812 0 0 0 3.807-3.807V13.934a7.281 7.281 0 0 0 4.366-6.661zm-5.818 28.92a2.355 2.355 0 0 1-2.355 2.352H3.807a2.355 2.355 0 0 1-2.353-2.353V8.9a2.355 2.355 0 0 1 2.353-2.355h20.957a7.578 7.578 0 0 0-.036.727 7.273 7.273 0 0 0 8.727 7.128zm.476-23.438a6.096 6.096 0 0 1-.436.135l-.079.02q-.193.049-.388.085c-.067.012-.135.021-.2.031-.1.015-.2.029-.293.039a6.21 6.21 0 0 1-.531.026 5.841 5.841 0 1 1 1.93-.336z" fill="#7FBCBE"/></svg>