<svg xmlns="http://www.w3.org/2000/svg" viewBox="0 0 45 45"><defs><style>.a{fill:#a2b3bb;}</style></defs><path class="a" d="M225.985,181.208l-.38.409Z" transform="translate(-209.018 -167.885)"/><path class="a" d="M215.58,157.865a3.948,3.948,0,0,1,.883,2.569,3.85,3.85,0,0,1-.6,2.041,4.985,4.985,0,0,1-.875,1.073l-1.209,1.195a9.359,9.359,0,0,0-2.252,3.032,9.8,9.8,0,0,0-.514,3.484H213.7a7.435,7.435,0,0,1,.431-2.879A8.494,8.494,0,0,1,216.013,166a20.59,20.59,0,0,0,2.652-2.933,4.653,4.653,0,0,0,.658-2.6,5.731,5.731,0,0,0-1.791-4.346,7.49,7.49,0,0,0-9.834.287,7.41,7.41,0,0,0-1.845,5.252h2.691a7.285,7.285,0,0,1,.619-3.009,4.3,4.3,0,0,1,6.416-.784Z" transform="translate(-190.774 -143.124)"/><path class="a" d="M45,22.5A22.5,22.5,0,1,0,22.5,45,22.5,22.5,0,0,0,45,22.5Zm-42.955,0A20.455,20.455,0,1,1,22.5,42.955,20.454,20.454,0,0,1,2.045,22.5Z"/><rect class="a" width="3.009" height="3.143" transform="translate(20.172 30.51)"/></svg>