<svg xmlns="http://www.w3.org/2000/svg" viewBox="0 0 33.079 40"><path d="M23.44 23.467l-.1-.046a14.586 14.586 0 0 0-.738-.314q-.408-.164-.829-.306a22.746 22.746 0 0 0-.67-.208c-.343-.1-.69-.19-1.047-.269a14.084 14.084 0 0 0-.368-.071l-.084-.016a14.588 14.588 0 0 0-.637-.11l-.061-.01H18.9l-.061-.008a14.608 14.608 0 0 0-.539-.073l-.627-.052a16.867 16.867 0 0 0-2.326.006l-.222.019-.1.008-.259.023c-.238.025-.475.058-.712.1l-.07.01c-.162.027-.323.057-.482.087-.177.032-.351.067-.526.1a16.817 16.817 0 0 0-1.754.497l-.166.06c-.509.181-1.015.389-1.5.617l-.131.062a16.687 16.687 0 0 0-9.417 14.98c0 .146.01.29.019.434l.034 1.011h32.955l.044-1c.01-.148.019-.295.019-.445a16.662 16.662 0 0 0-9.639-15.086zM1.616 38.377a15.043 15.043 0 0 1 8.56-13.368l.165-.065.019-.019c.4-.184.816-.352 1.236-.5l.133-.048a14.668 14.668 0 0 1 1.593-.453c.156-.033.312-.065.473-.095.128-.023.254-.048.383-.068l.063-.011c.231-.036.463-.07.694-.095l.528-.046a14.117 14.117 0 0 1 2.154 0l.514.043c.127.015.254.032.408.054l.185.027c.193.028.386.062.58.1l.09.017c.109.02.217.041.32.063a17.252 17.252 0 0 1 1.548.431q.378.127.747.274t.7.3l.04.019a15.034 15.034 0 0 1 8.715 13.442H1.616zm10.931-18.479c.121.051.246.1.372.14l.263.1c.1.039.2.077.306.11a10.2 10.2 0 0 0 2.994.469h.082a10.21 10.21 0 0 0 1.041-.054c.116-.011.229-.03.343-.049l.253-.038c.142-.019.284-.04.433-.069.1-.021.2-.048.3-.075l.276-.071c.137-.033.273-.067.408-.109.084-.027.166-.058.248-.089l.222-.08c.158-.055.318-.112.478-.179a5.11 5.11 0 0 0 .183-.085l.072-.036c.219-.1.437-.2.653-.316l.141-.084c.242-.138.484-.281.729-.449.127-.086.248-.183.368-.278l.414-.323a10.3 10.3 0 0 0 3.745-7.889v-.086a10.3 10.3 0 0 0-20.589-.652l-.006.132a6.787 6.787 0 0 0-.023.518 10.337 10.337 0 0 0 6.294 9.542zM7.886 9.951l.01-.146a8.69 8.69 0 0 1 17.365.477v.085a8.748 8.748 0 0 1-3.172 6.725l-.384.294c-.086.07-.172.14-.28.214-.194.132-.4.251-.607.37l-.116.071a7.99 7.99 0 0 1-.549.263l-.214.1c-.123.051-.252.1-.38.14l-.267.1c-.052.019-.1.041-.155.056-.1.031-.2.054-.3.08l-.322.083c-.07.019-.138.038-.2.051-.107.021-.217.036-.326.051l-.307.046a2.93 2.93 0 0 1-.232.034c-.269.028-.54.044-.814.046h-.078a8.619 8.619 0 0 1-2.583-.394c-.072-.023-.142-.051-.212-.078l-.3-.111a12.78 12.78 0 0 1-.279-.1 8.723 8.723 0 0 1-5.309-8.047c-.01-.142.001-.276.011-.41z" fill="#03a9f4"/></svg>